<?xml version="1.0" encoding="utf-8"?>
<!-- Generator: Adobe Illustrator 21.0.2, SVG Export Plug-In . SVG Version: 6.00 Build 0)  -->
<svg version="1.1" id="Слой_1" xmlns="http://www.w3.org/2000/svg" xmlns:xlink="http://www.w3.org/1999/xlink" x="0px" y="0px"
	 viewBox="0 0 462.5 253.2" style="enable-background:new 0 0 462.5 253.2;" xml:space="preserve">
<style type="text/css">
	.st0{fill:#FFFFFF;}
</style>
<g>
	<path class="st0" d="M54.8,98.4c0-0.8,0,0,0.8,0v0.8c1.5-0.8,3.8-1.5,5.3-2.3c0.8,0,1.5-0.8,3-1.5h0.8c-0.8,1.5-1.5,1.5-2.3,2.3
		c-1.5,0-2.3,0.8-3,1.5c0.8,0.8,1.5,0,2.3,0c3-0.8,6-3,8.3-5.3c3.8-2.3,6.8-5.3,10.5-8.3c1.5-1.5,3-3,4.5-4.5c2.3-1.5,3.8-3.8,3.8-6
		c0,0,0-0.8,0.8-0.8c0.8-3,0.8-5.3-0.8-7.5c-0.8-1.5-2.3-3-3.8-3.8c-1.5-1.5-3-2.3-5.3-3c-3.8-0.8-6.8-2.3-10.5-3
		c-3-0.8-5.3-2.3-8.3-3c1.5-2.3,3.8-3.8,5.3-5.3c3-2.3,5.3-4.5,7.5-6.8c0.8-0.8,1.5-0.8,2.3-1.5c1.5-0.8,2.3-1.5,3-2.3
		c1.5-0.8,2.3-2.3,3.8-3c0.8-0.8,1.5-1.5,2.3-2.3c1.5-1.5,3-2.3,3.8-3.8c1.5-1.5,2.3-3.8,3.8-5.3c0.8-2.3,1.5-4.5,2.3-6.8
		c0-2.3,0-3.8-0.8-6s-2.3-3.8-4.5-4.5c0-0.8,0-0.8-0.8-0.8c-1.5-1.5-3.8-2.3-5.3-3c-5.3-1.5-10.5-3-15.8-3
		c-10.4-0.8-26.1,0.6-34.5,9c-0.8,0.8-1.5,1.5-0.8,3c0,1.5,0.8,1.5,1.5,1.5c1.5,0,3-0.8,3.8-0.8s1.5,0,1.5,0.8
		c1.5,1.5,1.5,1.5,3,0.8c1.8-1.3,3.1-2.4,6-3c0,0.8-0.8,1.5-0.8,3c0,2.3-0.8,4.5-0.8,6.8c-0.8,6.8-1.5,14.3-2.3,21
		c0,3-0.8,6.8-0.8,9.8c0,4.5,0,9.8,0.8,14.3c0,3,0,5.3,0,7.5c0.8,3.8,1.5,7.5,2.3,11.3c0,0.8,0.8,2.3,0.8,3
		c-0.8,0.8-1.5,1.5-2.3,2.3c-0.8,0-1.5,1.5-0.8,2.3c0,0.8,0,1.5,0,2.3s0.8,1.5,1.5,2.3s1.5,1.5,1.5,2.3c0.8,0.8,1.5,0.8,2.3,0.8
		C51.1,99.2,53.3,99.2,54.8,98.4z M52.6,10.7c1.5-0.8,3-0.8,4.5-0.8c3-0.8,6.8-1.5,9.8-1.5c1.5,0,3,0,4.5,0.8c1.5,0,2.3,0,3-0.8
		s2.3-0.8,3,0c2.3,0,4.5,1.5,6.8,2.3c0,0.8,0.8,0.8,0.8,1.5c-0.8,0.8-0.8,1.5-1.5,2.3c-2.3,3.8-5.3,7.5-8.3,10.5
		c-4.5,4.5-9,9.8-13.5,14.3c-2.3,2.3-4.5,5.3-6.8,7.5c0,0,0,0.8-0.8,0.8s0-0.8,0-0.8c-0.8-2.3-0.8-4.5-0.8-6.8c0-0.8,0-1.5,0-2.3
		c0-3,0-5.3,0-8.3c0-3.8,0-8.3,0-12.8c0-0.8-0.8-2.3-0.8-3C52.6,12.2,52.6,11.4,52.6,10.7z M50.3,84.9c0-0.8,0-1.5,0-2.3
		c0.8-2.3,1.5-5.3,2.3-8.3c0-1.5,0-3.8,0-6c0-1.5,0-3,0.8-3.8c0-0.8,0-2.3,0-3s0-1.5,0-2.3c1.5,0.8,3,1.5,4.5,1.5c0-0.8,0.8,0,0.8,0
		c2.3,2.3,5.3,3,8.3,3.8c2.3,0.8,4.5,1.5,6.8,1.5c0.8,0.8,1.5,0.8,2.3,0.8c0,0.8-0.8,1.5-0.8,1.5c-2.3,1.5-3.8,3-6,4.5
		c-6,4.5-12,8.3-18,12.8c0,0-0.8,0-0.8,0.8C50.3,85.7,50.3,84.9,50.3,84.9z"/>
	<path class="st0" d="M179.3,45.1c-0.1,3.1-0.4,5.4-0.9,7.6c-1.5,10.5-1.8,15.6-4.1,25.4c-0.4,3-3.3,11.4-6.4,13.6
		c-2.5,0-3.4-3.1-3.4-3.1c-1.8-5.9-1.8-11.6-0.4-24c-0.4-3,1.5-6.8,1.1-9.8c-0.3-5.3,6.4-19,4.8-23.3c-0.1-1.5-0.9-1.4-2.8-2.8
		c-0.8-0.6-5.4-2.8-6.8-1.8c-0.8,0.1-1.8,0.9-3,1.8c-5,7.1-7.5,23.5-8.1,28.7c-0.1,0.1-0.1,0.2-0.1,0.3c0,1-0.8,1.6-0.8,2.1
		c-0.6,1-0.3,1.5-0.8,2.1c-2,3.5-5.9,15-8.9,17.3c-2,1-3.8-4.3-4.9-7.3c-1.4-3.1-2.4-8.3-3.6-11.4c-0.6-2.1-0.5-1.1-1-3.3
		c-0.6-0.5-0.8-1.1-1.3-1.5c0,0-0.5,0-0.5-0.5c0.8-2.6,2.1-4.8,3.6-6.8c1.1-1,2-2.6,2.4-3.8c2.9-4.6,3.4-5.1,6.3-8.6
		c0.5-0.5,0.9-1.1,0.9-1.5c0.6-0.6,1-1.8,2-1.8c0,0.6,0,0.6,0.8,1.1c0.5,0.6,1,0.6,1,0.6c0.5,0,0.5-0.6,1.1-0.6c0.1-2.1,0-4.1-1-5.1
		c-2.3-1.6-5.4-2.1-7.5-0.6c-1,0-1.4,1.1-2.4,1.6c-1.5,1.5-2.3,2.9-3.6,5c-2.9,4.3-2.5,5.3-5.3,10.5c-0.4,0.5-0.3,2.1-1.4,2.5
		c-0.9,1.5-1.4,3.6-2.1,5.8c-1.4,3.1-2.8,6.3-4.3,9.3c0,0.6-0.4,0.6-0.9,1.8c0.3-4.3,0.4-7.4,0.8-11c0.4-2.5,0.5-5.1,0.8-7.8
		c0.3-4.8,0.8-8.8,1-13.4c0.5-2.1,0.4-3.6,0.3-5.6c-0.1-1.1-0.1-2.1-0.9-3.3c0-1-0.5-1.5-1-1.5c-1.5,0-2.6,0-3.6,0.5
		c-0.6,0-7.6,0.6-7.9,1.6c-0.6,0-0.6,0.5-1.1,1.5c-0.4,1.6-1.3,3.1-1.1,4.6c-1.5,7-3.9,13.1-6.5,20c-2.1,4.6-1.6,5-5.8,12.8
		c-0.3,0.6-0.5,1.1-1,2.1l0.1,1c0.1,1.1,0.6,1.5,1.1,1.5c1.1,0,1-0.4,1.6-0.8c1.4-1.5,0.4-0.4,1.9-3c0.3-0.5,1.6-2.9,1.6-3.4
		c0.3-1.1,0.9-1.5,1.4-2.1c2.4-4.6,3.8-9.8,6-14.6c0,0-0.9,7.4-0.4,7.9c-0.4,1.6,0.1,3.8-0.4,5.3c-0.3,1.5-0.8,3.6-0.6,5.3
		c-0.8,4.6-1,8.6-1.6,13.5c-0.4,2.5-0.9,4.6-1,7.1c0.1,3.3-0.3,6.4-0.6,8.9c1.3,2.1,1.9,5.3,3.1,7.3c1.5,0,1.5,0,2.5-0.5
		c0.6,0,0.6,1.1,1,1.1l0.6-1.1c0.6-0.4,0.5-0.6,1.1-0.6c0.4,0.6,6.1,0,6-0.9c-0.1-1.6-0.3-3.8,0.3-5.3c0.3-3.1,0.6-7.5,0.9-10.5
		c0.4-2.1,0.8-3.8,1.4-5.3c0.8-1.5,1.6-3.1,2.6-5.3c0.5-1.1,0.5-1.5,1.5-2v0.9c0.6,1.1,0.6,1.8,0.8,2.8c0.6,2.5,1.1,5.1,2.1,7.8
		c1.6,4.4,3.9,6.9,6.5,8c2.3,1,3.3,1.4,5.3,0.3c1.5,0,3-1,4.5-2.1v-0.4c1.4-1.5,2.3-4.6,3.9-6.1c0.8-0.6,1.3-2,1.5-3.5v-1
		c0.6-0.6,1.8-3.6,2.8-6.4c-0.1,0.6-0.1,1.3-0.2,2c-0.3,3.3,1.1,8.5,0.9,11.5s1.8,6.3,3.3,9.5c3,6.6,10.3,5.1,16.1,3.8
		c0.6,0,1.4-0.1,2.1-0.9c1.6-1.1,8.4-10.4,8-12.6c1.3-3,4-6.3,4.5-9.8c0-0.4,0.9-4.9,1.6-8.8c0.3,6.4,1.1,12.4,1.4,15.8
		c0,4.3-0.5,10.5-0.3,12.8c1.5,3.5-0.5,6.4-0.9,9.4c0.6,3,0.4,6-0.6,9.1c-0.4,1.5-1,3.3-1.5,4.8c0.4,1.5-1,3.1-1.6,3.9
		c-0.6,1.6-0.9,3.4-1.5,4.4c-2.5,3.1-6.6,10.1-12,9.3c-1-0.6-2.6-3.3-2.1-4c0-0.8-0.3-1.5-0.3-1.5c-0.1-1.5-0.6-1.1-0.1-2.6
		c0.4-1.6,0.8-6.6,0.4-8.9c0,0,2.1-4.6,2.8-5.4c1.4-5.4,2.9-4.6,5.8-9.4c0.9-2.1,7.3-4.8,8.3-6.6l-2.6-0.6
		c-4.9,1-14.1,10.5-15.9,14.4c-2.9,4.6-2.8,4.5-4,9.9c-2.1,4.8-1,12,1.5,15.4c1,4.1,6.4,8.9,10.5,8.9c0,0,0.8,0,1.5-0.3
		c1.5-0.1,2.3-0.1,3.5-1c3-0.3,3.4-1.3,5.3-3.6c1.5-0.9,2-2.5,3.4-3.3c1.4-0.9,2.6-2.6,3.1-3.4c1.3-2.4,2.4-4,3-5.5
		c1.3-1.6,1.6-3.3,2.1-5.5c1.8-3.3,1.8-5.5,1.9-9.3c0.8-0.9,1.1-9.1,0.3-9.8l-0.4-2c-0.6-4.5,1.6-1.9,0.1-6.3
		c-1.3-3.5,1-1.8-0.4-5.4c-0.1-1.5,0.1-4.8-0.9-7l-0.3-5.1c-0.8-0.6-0.1-1.5-0.4-3c-1.1-2.1,0.6-3.9-0.5-6c-1.5-4.4,0.9-3.8,0.1-8.1
		c-1.3-3,0.4-13-0.3-16c0.5-5.4,0.5-6.9-1.4-8.3c-2.4-0.5-9.9-1.3-11.3,0.4C179.8,37.6,178.9,41.4,179.3,45.1z"/>
	<path class="st0" d="M204.9,82.6c0.8,2.3,3,3.8,4.5,5.3c0.8,1.5,3,2.3,4.5,3s3,0.8,4.5,1.5c2.3,0.8,4.5,0.8,6.8,0.8
		c0,0,0,0,0.8-0.8c0-0.8,1.5-0.8,2.3-1.5c1.5-0.8,3-1.5,3.8-2.3c1.6-1.8,2.3-1.3,4.3-3.4c1.1-1.1,3.3-2.6,3.3-3.4s1-1.5,1.8-2.3
		c0-2.1,2.5-3.5,2.8-6c1.5-1.5,2.3-3.8,3-6.8c0-0.7,0.3-1.5,0.8-2.4c0.9-1.1,1.9-2.6,2.6-4.1c-0.9,1.9-0.8,6.1-1.8,8.5
		c-0.9,2.5-1.4,10.6-1.9,13c1.5,2,1,3,1.9,4.9c0.5,0.9,1.5,2.5,3.4,2c0,0,0.4,0,0.4,0.5c1.1,0,1.6,0.4,2.1,0.9
		c0.5,0,0.5,0.5,0.9,0.5h1.9c0.5-1.4,0.5-3,0.5-4.4s0-9.5,0.5-11.1c0-1.9,0.6-3.8,1.1-5.8c0-2.9,1-7.1,2.4-9.4h1
		c1.5,0,3,0.4,4.9,0.4c0,0,0.3,1.3,0.3,1.8c-0.4,1.9-0.4,3.9-0.9,5.8c-1,5.4-1,11.1,0.5,16.5c0.4,1.4,0.9,2.4,2.5,3.4
		c1.8,1.9,5.3,2.6,6.5,1.6c0.8-0.6,2.1-1,3-1.5c1.1,0,4.8-2.4,7.3-8.8c0.5-1.5,1.9-4.4,3.3-5.9c0,0,0.5-0.5,0.5-1
		c0-0.1,0.4-1.1,1-2.5c0.8,2.7,2.3,5.6,3.8,7.1c3.8,4.5,9,5.3,13.5,2.3c1.5-0.8,2.3-2.3,3-3s1.5-1.5,1.5-3c0.8-0.8,1.5-1.5,2.3-3
		c0,0,0,0,0.8-0.8c0,0.8,0,0.8,0,1.5c0,3,0,6-0.8,9.8c0,0,0,0.8,0,1.5s0.8,2.3,1.5,2.3c1.5,0.8,2.3,1.5,3,2.3c0,0.8,0.8,0.8,0.8,0.8
		c1.5,2.1,6-1.6,6-3.8c0-0.8,0.8-1.5,1.5-2.3c0.8-1.5,0.8-1.5,1.5-3c0.8-0.8,1.5-1.5,1.5-2.3c0.8-0.8,3.3-3.8,3.3-5.3
		c0.1-0.1,0.1-0.2,0.2-0.3c1,5.3,3.4,10.3,4,10.9c2.3,1,3,3.8,5.3,3.8c2,1,6.1,0.4,7.1-0.6c4-2.4,8.1-5.9,11.6-12.4
		c1.5-2.9,3.3-4.5,4.3-6.8c0-3.3,1.3-2.8,1.3-5c-1.3-1.3-2.3-2.3-4.3-2.3c-1.3-1-2.5-2.3-4.4-2.3c0,1.3-1.3,0-1.3-1
		c-4.3-3.3-4.3-9.8-1-14c1-2.3,2.3-3.3,4.1-4.5c2.5-2.3,4.5-3.3,6.8-3.3c2-1.3,3-1.3,5,1v2.3c0,2.3-1,4.5-1,6.5
		c0,12-2.3,24.3-3.3,35c-1,3.3-2,6.5-2,8.9c0,2-1.4,2.5-3.3,4.3c-1.5,2.1-1.1,3.8,0,5.3c2,1,2.9,3.4,3.9,4.9l3.6,1.9
		c1.1,0.6,2.4,0.3,3.5,0c1-3.3,1.8-2.8,2.8-4.8c0-3.3,0.5-2.4,1.5-5.4c0,0,1-1.4,1-2.4c0-1.5,1.3-4.6,2.4-6.1
		c9.4-12.3,8.3-11.6,11.8-17c1-1.6,4.4-6,2.5-7.9l-0.3-0.3c-1.4-1.4-2.4,1.5-3.4,2.8c-3.6,5.1-4,5.9-6.5,9.5c-1.4,2-3.5,5-4.8,6
		c0-2,2.5-17.1,2.5-19.4c0-5.1,3.5-12.3,3.5-18.5c0-3.3-1.3-5.5-2.5-8.8c0-1-1-3.3-2-4.3h-1.3c-2,0-4.3,1-6.3-1h-2.5c-1,0-2,0-3.3-1
		c-4.3,0-7.3,0-11.6,2c-1,0-3.3,1-4.3,2.3c-6.5,5.3-9.8,12-8.8,20.8c1,5.3,3.3,9.5,8.8,12l1,1c-4.3,8.5-9.3,14.9-12.6,15.3
		c-1,0-3.4-6.3-3.5-13c0-1.1,2.4-2.8,3.4-4c0.8-1,0.6-3-0.2-4.2c0.1-0.9-0.1-1.6-0.4-1.6c-0.5,0-1.5,0.1-2.1,0.4
		c-0.5,0.1-1,0.2-1.6,0.6c-2.3,1.4-2,2.5-3,5.8c-0.3,0.8-0.5,1.7-0.6,2.7c-1.5,2.8-3,5.5-4.6,7.8c-0.6,0.9-1.1,2.3-2.3,3
		c0-1.5,0-2.3,0-3c0-4.3,0.8-9.8,0.8-14.3c0-0.8,0-1.5,0-2.3c0.8-3.8,1.5-7.5,2.3-11.3c0-2.3,0.8-4.5-0.8-6.8c0.8-1.5-0.8-2.3-1.5-3
		c-0.8,0-1.5,0-2.3-0.8c-2.3-0.8-3.8-0.8-6,0.8c0,2.3-0.8,4.5-0.8,6.8c0,1.5,0,3-0.8,4.5c-0.8,2.3-1.5,3-1.5,6c0,0,0,0.8-0.8,1.5
		c0,1.5-0.8,4.5-1.5,5.3c-3,5.3-4.5,9-7.5,12.8c-0.8,0.8-1.5,1.5-3,2.3c-0.8,0.8-3.8,0-3.8-1.5c-0.8-3,0-3,0-6.8
		c1.5-0.8,1.5-2.3,1.5-3.8c0.8-2.3,2.3-6,3-8.3c0.8-0.8,1.5-1.5,1.5-2.3c1.5-2.3,2.3-6.8,4.5-9c0,0,0.9-1.4,1.6-2.1
		c0-2.3,2.1-3.6,3.6-5.1c0-0.8,3.3-3,4-3s2.4-0.4,3.1-0.4c-0.8-3-3.3-4.6-6.3-5.4c-0.8,0-1.3-0.3-2.3-0.6c-0.8-0.4-5,0.9-5.8,1.6
		s-3.9,2.9-4.6,3.6c-3,3.8-4.5,6.1-6.8,9.9c-3,5.3-3.5,6-5,12c-1.1,2.1-2,6.2-2.1,9.7c-3.7,6.6-8.1,18.4-10.7,19.4h-1.5
		c-0.4-1.1-0.4-2,0-3c0-2.3,0.5-4.4,0-6.6c0-1.5,0.5-3,0.5-4.5c0.5-2.9,0.8-6.3,1.9-8.6c0.4-0.5,1.6-0.8,2.1-0.9l2.6-0.8
		c2.3-0.9,4.1-1.9,4.4-2.4c-0.6-0.6-1.1-1.1-1.8-1.9c-0.5-0.5-0.9-0.9-1.4-0.9c-1.6-0.5-2.5,0.4-3.9-0.6c0.4-2.3,0.9-5.3,1.9-7.1
		c-1-0.4,0.3-3.4,0.3-4.5c0.5-1,1-2.4,1.4-3.8c0-1,0-2.5,0.5-3.5c1.1-1.4,0.6-3.3,0.6-4.8c0-1-0.6-1.5-1.1-1.9v-0.5
		c0-1.4-2.1-2-3.1-3c-0.9,0-1.4,1-1.4,1.6c-0.9,1.4-1.4,2.8-2.5,4.1c-1.9,3.5-3.3,8.6-4.9,12.4c-0.9,2.5-2.3,6.9-3.1,9.9h-1.5
		c-1.5,0.5-3-0.3-4.4,0.1c-1,0.5-2.1,0.5-3,0.5c0.5-3.4,0.9-6.3,1.5-9.8c0.5-2.8,1-5.8,1-8.5c0-1,0-2.1-0.5-3c-0.5-1-1.5-2.4-2-3.3
		h-1.9c-1.4,0.4-5.1,0.9-5.1,2.3v0.5c0,2.5,0,4.4-0.5,6.8c-0.9,5.3-1.5,5.9-3,11.3c-1,2-3.3,8.3-4,9.1l-0.7,1.5
		c-0.8,0.1-1.8,1.1-2,1.8c-1.3,3.9-6.3,13.8-9,17.9c-1.5,2.3-3,3.9-4.5,5.4c-2.3,2.3-7.5,4.4-10.5,3.6c-0.8,0-3.5-1.8-4.3-2.5
		c-1.5-2.3-1.8-2.8-2.5-5s-0.8-3.8-0.8-6c0-1.5,0-3.8,0-6c-0.8-1.5,0-2.3,0-3.8c0-2.3,0.8-3.8,0-5.3c0-2.3,0.8-4.5,1.5-6.8
		s1.5-5.3,2.3-7.5c0.8-3.8,3-6.8,5.3-9.8c0.8-0.8,1.5-1.5,2.3-1.5c0.8,0.8,1.5,1.5,1.5,2.3c-0.8,5.4-0.9,10.8-1.4,16.9
		c0.1,3.4,3.4,3.9,5.3,4.9c0.8-0.8,0.8-0.8,0.8-0.8c0.8-1.5,1.5-1.5,2.3-2.3s0.8-1.5,0.8-1.5c0.8-1.5,0.8-3,0.8-4.5s0-3,0-4.5
		c0-0.8,0-0.8,0-1.5c-0.8-2.3,0-2.6-0.8-4.9s-2.4-1.9-3.1-4.1c0-0.8-0.8-0.8-0.8-1.5c0-1.5-0.8-3-0.8-4.5c-0.8,0-0.8,0-0.8-0.8
		c-1.5,0-2.3,0-3,0c-2.3-0.8-4.5-0.8-6.8,0c-0.8,0-1.5,0-2.3,0c-0.8,0.8-1.5,0.8-1.5,1.5c-3,3-6.8,7.5-8.3,11.3
		c-4.5,7.5-5.3,15-6.8,24c0,3.8,0,7.5,0.8,11.3C201.9,77.3,203.4,80.3,204.9,82.6z"/>
	<path class="st0" d="M46.5,195.4c0-2.3,0-3.8,0-6c-0.8-1.5-0.8-2.3-0.8-3c-1.5-5.3-1.4-9.8-2.9-14.3c-0.8-3.8-1.9-7.5-2.6-10.5
		c-0.8-1.5-0.8-2.3-0.8-3c0-1.5-0.8-2.3-0.8-3.8c0-0.8-0.5-1.5-1.3-3c0.8-0.8,0-1.5,0-3c-0.8-0.8-0.8-2.3-1.5-3.8
		c0,0.8-0.8,0.8-0.8,0.8c-1.5,0-1.5,1.5-1.5,2.3s-0.9,1.5-0.9,2.3c0.8,1.5,0.8,2.3,0,3.8c-0.8,3-1.4,6-2.1,9
		c-2.3,3.8-4.5,8.3-6.8,12c-3,5.3-5.8,10.1-10.3,14.6c-0.8,0.8-1.5,1.5-3,2.3H10c-1.5,0-0.8-0.8-0.8-1.5c0-2.3,1-5.6,1.5-7.9
		c1.5-6,2.8-8.3,4.3-12.8c0.8-0.8,0.8-1.5,0.8-1.5c0.8-2.3,2-4.5,2.8-6c1.5-3,2.5-6,4-8.3c0-0.8,0.8-0.8,0.8-0.8
		c0.8-2.3,2.3-4.5,3.8-6c1.5-2.3,1.5-2.9,3.8-1.4c0.9-0.9,1.5-0.9,1.5-3.1c-0.8-0.8-0.8-2.3-1.5-3c-1.5,0-2.1-1.1-4.4-1.1
		c-0.8,0.8-4.6,1.1-5.4,1.9c-1.5,1.5-5.1,4.5-5.9,6c-3,3.8-5.4,7.5-7.6,11.3c-3.8,6.8-3.8,7.4-6,14.9c-0.8,3-1.5,9.8-1.5,12.1
		c0,3,0.8,5.3,0.8,7.5c0.8,1.5,1.5,3,3,4.5c0.8,0.8,2.3,1.5,3.8,2.3c0.8,0.8,2.3,0.8,3,0.8c2.3-0.8,3.8-1.5,5.3-2.3
		c0.8,0,1.5-0.8,2.3-0.8c2.3-3,4.5-5.3,6.8-8.3c0.8-0.8,1.5-2.3,2.3-3.8c1.5-3.8,1-0.8,2.5-4.5c0-1.5,1.8-3.4,1.8-4.1
		c0.8-1,0.4-4,1.8-5.8c1,2.1,0.5,5.3,1.3,7.5c0,3,1.5,7.8,1.5,10c0,1.5,0,3,0,4.5c0,5.3,1,3.6,0.3,8.1c0,3,0,5.3-0.8,7.5
		c0,3-0.8,6-0.8,9c-0.8,3-2.1,6.8-3.6,9.8c-0.8,2.3-1.5,3.8-3,5.3c-3,3-5.4,3.8-9.1,3.8c-0.8-0.8-1.5-0.8-1.5-1.5
		c-0.8-0.8-1.5-2.3-0.8-3.8c1.8-8.3,4.8-17.3,10.5-24c0-0.8,0.8-1.5,1.5-2.3c0.8,0,0.8-0.8,1.5-0.8c-0.8-1.5-0.8-2.3-1.5-2.3
		c-1.5-0.8-3-0.8-4.5-0.8c-1.5,0.8-2.3,1.5-3.8,3s-3,3.8-3.8,6c-2.3,3.8-3,7.5-3.8,11.3c-0.8,3-1.5,6-1.5,9c0,1.5,0,2.3,0,3
		s0.8,2.3,1.5,3c0.8,0,1.5,0.8,1.5,1.5c1.5,0.8,2.3,1.5,3.8,2.3c2.3,0,5.3,0.8,7.5,0.8c1.5-0.8,3-0.8,5.3-2.3c1.5-0.8,3-3,5.3-4.5
		c0.8-0.8,1.5-2.3,2.3-3.8c0-0.8,0.8-0.8,1.5-1.5s1.5-1.5,1.5-3c0-0.8,0.8-2.3,1.5-2.3c1.5,0,0.8-1.5,1.5-2.3c0.8-4.5,1.5-9,3-13.5
		v-0.8c-0.8-1.5-0.8-3-0.8-3.8C46.5,199.9,46.5,197.7,46.5,195.4z"/>
	<path class="st0" d="M462.1,172.1c-0.8,0-2.6,0.3-2.6,1c-3.6,5.8-6.1,11.8-9.4,16.3c-0.6,0.9-1.1,2.3-2.3,3c0-1.5,0-2.3,0-3
		c0-4.3,0.8-9.8,0.8-14.3c0-0.8,0-1.5,0-2.3c0.8-3.8,1.5-7.5,2.3-11.3c0-2.3,0.8-4.5-0.8-6.8c0.8-1.5-0.8-2.3-1.5-3
		c-0.8,0-1.5,0-2.3-0.8c-2.3-0.8-3.8-0.8-6,0.8c0,2.3-0.8,4.5-0.8,6.8c0,1.5,0,3-0.8,4.5c-0.8,2.3-1.5,3-1.5,6c0,0,0,0.8-0.8,1.5
		c0,1.5-0.8,4.5-1.5,5.3c-3,5.3-4.5,9-7.5,12.8c-0.8,0.8-1.5,1.5-3,2.3c-0.8,0.8-3.8,0-3.8-1.5c-0.8-3,0-3,0-6.8
		c1.5-0.8,1.5-2.3,1.5-3.8c0.8-2.3,2.3-6,3-8.3c0.8-0.8,1.5-1.5,1.5-2.3c1.5-2.3,2.3-6.8,4.5-9c0,0,0.9-1.4,1.6-2.1
		c0-2.3,2.1-3.6,3.6-5.1c0-0.8,3.3-3,4-3s2.4-0.4,3.1-0.4c-0.8-3-3.3-4.6-6.3-5.4c-0.8,0-1.3-0.3-2.3-0.6c-0.8-0.4-5,0.9-5.8,1.6
		s-3.9,2.9-4.6,3.6c-3,3.8-4.5,6.1-6.8,9.9c-3,5.3-3.5,6-5,12c-1.1,2.3-2.1,6.8-2.1,10.4c-2.1,4.4-5.5,14-8.3,16.1
		c-2,1-3.8-4.3-4.9-7.3c-1.4-3.1-2.4-8.3-3.6-11.4c-0.6-2.1-0.5-1.1-1-3.3c-0.6-0.5-0.8-1.1-1.3-1.5c0,0-0.5,0-0.5-0.5
		c0.8-2.6,2.1-4.8,3.6-6.8c1.1-1,2-2.6,2.4-3.8c2.9-4.6,3.4-5.1,6.3-8.6c0.5-0.5,0.9-1.1,0.9-1.5c0.6-0.6,1-1.8,2-1.8
		c0,0.6,0,0.6,0.8,1.1c0.5,0.6,1,0.6,1,0.6c0.5,0,0.5-0.6,1.1-0.6c0.1-2.1,0-4.1-1-5.1c-2.3-1.6-5.4-2.1-7.5-0.6
		c-1,0-1.4,1.1-2.4,1.6c-1.5,1.5-2.3,2.9-3.6,5c-2.9,4.3-2.5,5.3-5.3,10.5c-0.4,0.5-0.3,2.1-1.4,2.5c-0.9,1.5-1.4,3.6-2.1,5.8
		c-1.4,3.1-2.8,6.3-4.3,9.3c0,0.6-0.4,0.6-0.9,1.8c0.3-4.3,0.4-7.4,0.8-11c0.4-2.5,0.5-5.1,0.8-7.8c0.3-4.8,0.8-8.8,1-13.4
		c0.5-2.1,0.4-3.6,0.3-5.6c-0.1-1.1-0.1-2.1-0.9-3.3c0-1-0.5-1.5-1-1.5c-1.5,0-2.6,0-3.6,0.5c-0.6,0-7.6,0.6-7.9,1.6
		c-0.6,0-0.6,0.5-1.1,1.5c-0.4,1.6-1.3,3.1-1.1,4.6c-1.5,7-3.9,13.1-6.5,20c-1.4,3.1-1.7,4.3-2.9,7.1c-0.3,0-0.6,0.2-0.6,0.2
		c-1.3,4.6-5.8,11-7.4,11c-0.1,0-0.2,0-0.2,0c0,0,0,0,0,0c0,0-0.1,0-0.2,0c0-0.8,0.8-2.5,0.8-3.9c0-1.8,1-4.9-0.9-6.8v-0.5
		c-0.6-2-1.9-3-3.6-4.3c-1.3-1.3-3-1.3-5-1.9c-1-0.6-1-0.6-2.4-0.6c-0.5,0-1.6,0-2.3,0.6c-0.8,0-1.9,0-1.9,0
		c-1.1,1.1-2.4,2.5-3.1,3.1c-1.1,1-1.1,3-1.1,4.3c0,1.8,0.6,4.4,2.4,4.4c1.9,2.3,2.4,5.5,4.9,7.3c-1.3,2-2.1,4-3.6,5.8
		c-1.8,2.5-3.6,4.4-6,6.3c-0.6,0.6-1.3,1.3-2.5,1.3c0-1.3,0-1.8-0.5-3.1c-0.8-1.1-0.8-2.4-0.8-3.6c0-2.4,0-5.4,0.8-7.8
		c0.5-2.5,0.5-5,1.8-6.9c0-0.5,0-1.1,0.6-1.1c0.6-3.1,1.1-6.1,2.5-9.1c0.5-1.8,1.1-4.3,1.6-6.1c1.3-2.5,2.4-7.5,3-9.8
		c0.5-2.5,0.5-4.3,1.1-6.3c0-1.1,0-1.9,0-3c0,0,0-0.5,0-1.3c-1.1-0.6-1.8-1.8-3-1.3c-0.6,0-3.1,0-3.9,0c-0.5,1.3-1,2-1.6,3.1
		c-0.8,1.9-1.4,3-1.9,4.9c-1.9,4.3-3.5,10.5-4.6,14.9c-1.4,4.1-1.8,5.9-2.9,10.8c-0.2,0.6-0.3,1.3-0.5,2
		c-3.9,5.4-9.2,20.7-12.1,21.8h-1.5c-0.4-1.1-0.4-2,0-3c0-2.3,0.5-4.4,0-6.6c0-1.5,0.5-3,0.5-4.5c0.5-2.9,0.8-6.3,1.9-8.6
		c0.4-0.5,1.6-0.8,2.1-0.9l2.6-0.8c2.3-0.9,4.1-1.9,4.4-2.4c-0.6-0.6-1.1-1.1-1.8-1.9c-0.5-0.5-0.9-0.9-1.4-0.9
		c-1.6-0.5-2.5,0.4-3.9-0.6c0.4-2.3,0.9-5.3,1.9-7.1c-1-0.4,0.3-3.4,0.3-4.5c0.5-1,1-2.4,1.4-3.8c0-1,0-2.5,0.5-3.5
		c1.1-1.4,0.6-3.3,0.6-4.8c0-1-0.6-1.5-1.1-1.9v-0.5c0-1.4-2.1-2-3.1-3c-0.9,0-1.4,1-1.4,1.6c-0.9,1.4-1.4,2.8-2.5,4.1
		c-1.9,3.5-3.3,8.6-4.9,12.4c-0.9,2.5-2.3,6.9-3.1,9.9h-1.5c-1.5,0.5-3-0.3-4.4,0.1c-1,0.5-2.1,0.5-3,0.5c0.5-3.4,0.9-6.3,1.5-9.8
		c0.5-2.8,1-5.8,1-8.5c0-1,0-2.1-0.5-3c-0.5-1-1.5-2.4-2-3.3h-1.9c-1.4,0.4-5.1,0.9-5.1,2.3v0.5c0,2.5,0,4.4-0.5,6.8
		c-0.9,5.3-1.5,5.9-3,11.3c-1,2-3.3,8.3-4,9.1l-0.2,0.5c-0.1,0.1-0.2,0.1-0.3,0.2c-0.9,1.3-1.4,3.3-2.5,5.3c-1.8,3.4-3.8,7.1-4.6,8
		c-0.8,1-2,2.3-3.5,3.1c-2.6,1.4-3.3,3.1-6.5,3.9c-2.3,0.5-2.9,0.8-4.4,0.8c-3-0.5-4.9-1.9-5.8-4.9c-1.6-1.5-0.9-3-1-3.8
		c-0.9-2.1-0.5-4.5-0.4-6.1c4.9-0.9,8.9-4.3,12.5-7.4c3.6-3.3,6.3-7.1,8.3-11.1c1.4-2.3,1.4-4.5,1.3-6c0-0.8-0.3-1.5-0.3-2.3
		c0.8-0.9-0.1-1.5-0.1-2.3c-0.8-0.8-1.5-1.5-2.4-2c-3.9-2.1-6.9-3.4-11.4-3.3c-1.5-0.5-4.5,0.4-6,1.1c-1.4,0.9-2.1,1.6-3.6,3.3
		c-2.1,1.6-2.8,3.1-4,5.6c-3.5,6.1-6.8,12.3-6.5,19c-0.4,0.4-0.7,1.9-0.6,4.1c-1.1,1.2-2.9,3.3-3.9,3.4c-0.6-1,0-11.6-1-12.8
		c-1.3-1.1-1.1-3.8-2.1-5c-0.6-0.5-1.3-1-1.8-1c-1.3-0.6-1.9-0.6-2.9-1.3c0-0.6-1.3-0.6-1.3-0.6l-5.3-1.1c-0.6,0-0.6,0-1,0
		c-1.9,0-4.3,0.5-5.9,1.1c-2.4,1.3-4,2.4-4.6,4.1c-0.6,0.5-0.6,0.5-1.3,1.1c-1.6,3.5-2.9,9.9-1,14c0.4,1.8,0.8,4.1,2.5,5.4
		c2.3,1.3,3.1,3.5,6,3.5c0.6,0,1.6,0.4,2.9,0.4v0.6c0,0.6,0,0.6-0.6,1.3c-2.4,6.3-1.1,4.6-5.1,9.9c-1.9,2.4-4.1,4-6,5.9
		c-0.5,0.5-1.8,1.1-2.8,1.1c-1.3-1.1-2.5-3.6-2.5-5.3c-1-4-0.5-8.1,0-11.5c0.6-1.9,0.6-3.6,1.3-4.6c0-1.9,0-3.5,0.6-5.3
		c0-0.6,0-1.9,0.6-2.5c0-0.4,0-1.6,0-2.3c0.5-2.3,0.5-4,1-6.3c0.6-3,0.6-6.5,1.3-9.3c0.5-4.1,3.4-7.5,5.8-10.5c0-0.6,0-0.6,0-0.6
		c1.1-0.5,1.8-1.1,2.3-2.3c1.9-2.3,2.3-0.9,3.5-3.1c1.1-1.9,2.4-3,2.8-4.8c0-0.5,0.6-1.8,1.3-2.4c1.3-0.6,1.8-1.6,2.4-2.3
		c2.3-3.4,1.1-0.4,3.5-3.9c1-2.4,3-4.6,4.1-7.6c1.6-3.5,0-6.1,1.3-10.1c-0.6-1.3-1.9-2.3-1.3-3.5c-0.6-1.1-1.3-1.8-1.8-2.4
		c-1.1-1.6-2.3-2.3-4.5-2.3c-1.3,0-3,0-4.8,1.3c-1.1,0.6-2.4,1.6-3.4,2.9c-1.9,1.1-3.6,2.8-4.6,4.6c-4.1,4-3.8,4.6-7.1,9.9
		c-2.3,4.1-1.6,2.8-3.5,7.4c-1.1,1.6-2.3,4.1-2.9,6.4c-2.4,5.8-4,12.1-5.8,18.5c-1.3,5.8-2.3,11.6-2.9,17.5c0,0.1,0,0.1,0,0.2
		c-0.5,1.2-1,2.6-1.8,4.1c-1.8,3.4-3.8,7.1-4.6,8c-0.8,1-2,2.3-3.5,3.1c-2.6,1.4-3.3,3.1-6.5,3.9c-2.3,0.5-2.9,0.8-4.4,0.8
		c-3-0.5-4.9-1.9-5.8-4.9c-1.6-1.5-0.9-3-1-3.8c-0.9-2.1-0.5-4.5-0.4-6.1c4.9-0.9,8.9-4.3,12.5-7.4c3.6-3.3,6.3-7.1,8.3-11.1
		c1.4-2.3,1.4-4.5,1.3-6c0-0.8-0.3-1.5-0.3-2.3c0.8-0.9-0.1-1.5-0.1-2.3c-0.8-0.8-1.5-1.5-2.4-2c-3.9-2.1-6.9-3.4-11.4-3.3
		c-1.5-0.5-4.5,0.4-6,1.1c-1.4,0.9-2.1,1.6-3.6,3.3c-2.1,1.6-2.8,3.1-4,5.6c-3.5,6.1-6.8,12.3-6.5,19c-0.3,0.3-0.5,1.2-0.6,2.5
		c-1.3,2.7-2,4.9-4.3,7.7c0-1.5,0-2.3,0.8-3v-3.8l1.5-6.8c0-3,0.8-6,0-9v-1.5c-0.8-0.8-0.8-2.3-0.8-3c-0.8-2.3-3.8-3.8-5.3-5.3
		l-0.8-0.8c-3-1.5-6.8-0.8-9.8,1.5c-1.5,0.8-2.3,2.3-3.8,3c-3,3.8-5.3,8.3-6.8,12.8c-2.4,4.6-2.9,8.3-4.4,12.9
		c0-1.5,0.3-3.1,0.5-4.9c0.8-4.5,0.3-8,0.9-11.8l0.6-3.8c0.8-2.3,0.8-4.5,0.8-6c0.8-3.8,0-3.8,1.5-7.5c-0.1-3-5-5.3-9.6-5.3
		c-1.5,0.8-4,4.5-4,6.8c-0.8,1.5-1.6,5.8-2.4,7.3s-3.6,8.9-4.4,10.4c-0.9,1.8-1.9,4.7-2.8,7.5c-0.6,1.2-1.1,2.7-2,4.3
		c-1.8,3.4-3.8,7.1-4.6,8c-0.8,1-2,2.3-3.5,3.1c-2.6,1.4-3.3,3.1-6.5,3.9c-2.3,0.5-2.9,0.8-4.4,0.8c-3-0.5-4.9-1.9-5.8-4.9
		c-1.6-1.5-0.9-3-1-3.8c-0.9-2.1-0.5-4.5-0.4-6.1c4.9-0.9,8.9-4.3,12.5-7.4c3.6-3.3,6.3-7.1,8.3-11.1c1.4-2.3,1.4-4.5,1.3-6
		c0-0.8-0.3-1.5-0.3-2.3c0.8-0.9-0.1-1.5-0.1-2.3c-0.8-0.8-1.5-1.5-2.4-2c-3.9-2.1-6.9-3.4-11.4-3.3c-1.5-0.5-4.5,0.4-6,1.1
		c-1.4,0.9-2.1,1.6-3.6,3.3c-2.1,1.6-2.8,3.1-4,5.6c-3.5,6.1-6.8,12.3-6.5,19c-0.6,0.8-1,4.3,0,9.6c0.1,0.8,0.6,3.6,0.6,4.4
		c2.6,6.5,5.4,11,13,12.1c0,0.8,4.6,0.6,5.4,0.4c1.5,0,4.4-2.3,5.9-2.4c2.1-0.9,4.4-1.8,6.5-3.4c2.8-3.1,6.4-8.4,8.9-13
		c0.5-0.4,0.6-0.9,1.1-2c4.3-7,7.3-15.9,10.3-23.8c-0.1,1.6-0.8,4.1,0,4.9l-0.6,3.8c0,2.3,0,4.5-0.8,6v3.8c0,5.3-0.9,10.5-1.6,29.3
		c-0.8,2.3,0,5.3-0.8,8.3c0,2.3,0.5,2.6-0.3,4.9v6c0,5.3,0.3,4.1,0.3,8.6v3.8c-0.8,2.3-0.8,10.5,0,12.8c1.5,1.5,1.5,1.5,3,2.3
		c0.8,0,1.5,0.8,2.3,0.8c0.8,0.8,1.5,0.8,3,0.8c0.8-0.8,1.5,0,2.3-0.8c0-0.8,1.5-0.8,1.5-0.8c2.1-3-0.9-31.9,0-40
		c1.3-11.8,0.1-10.9,2.4-19.1c0.8-3.8,2.1-8.6,3.6-12.4s2.3-5,4.5-8c1.5-3.8,3-7.5,6-11.3c0.8-0.8,1.5-2.3,3-3
		c0,0.8,0.8,0.8,0.8,1.5c0.1,9-1,20.9-5.5,34.5c-2.6,2.4-6.1,6.1-7.3,8.3c-3,4.5-2.5,3-4,8.3c0,0.8-0.8,4.3,0,5
		c1.5,0.8,1.8,2.5,3.3,2.5c0.8,0.8,1.5,0.8,2.3,0.8c2.3,1.5,5.3-0.9,6-1.6c2.3-2.3,3.6-3.6,5.1-6.6c0.8-2.3,1.3-3.3,2.8-6.3
		c1.5-2.3,2.5-5.9,3.3-8.9c0.3-1.4,0.5-2.3,0.6-2.9c0.9-0.9,3-2.8,6.4-8.3c0.1,0.4,0.1,0.7,0.2,1.1c0.1,0.8,0.6,3.6,0.6,4.4
		c2.6,6.5,5.4,11,13,12.1c0,0.8,4.6,0.6,5.4,0.4c1.5,0,4.4-2.3,5.9-2.4c2.1-0.9,4.4-1.8,6.5-3.4c2.6-2.9,5.9-7.6,8.3-12
		c0,1.9,0.1,4.2,0.3,7.4c0,2.3,0,2.3,0,2.3c0,2.4,0.6,5.3,1.3,7.5c0.5,3,1.5,5.9,3.3,8.3c1.9,2.3,3.9,4.5,6.8,5.1c0.5,0,0.5,0,0.5,0
		c1.9,1.3,2.4,1.3,3.5,1.3c1.8,0,3.4,0,4.6,0s1.8,0,2.9-0.6c0.6,0,1.1-0.6,2.4-0.6c1.3-0.6,2.3-1,2.9-2.3c1.1-0.6,3-1.8,4.3-2.4
		c1.6-2.9,4.5-5.1,6.1-7.5c0.6-1.3,0.5-2.3,1.1-3.5c1.1-1.1,0.6-1.6,1.9-2.8c1.1-2.9-0.3-1,0.9-4c0-0.5,0-0.5,0.6-1
		c1.1-2.4,0.9-1.4,1.5-4.3c0.4,0.1,3.1-2.1,4.5-4.1c0.1,0.7,0.2,1.3,0.3,2.1c0.1,0.8,0.6,3.6,0.6,4.4c2.6,6.5,5.4,11,13,12.1
		c0,0.8,4.6,0.6,5.4,0.4c1.5,0,4.4-2.3,5.9-2.4c2.1-0.9,4.4-1.8,6.5-3.4c3.2-3.7,7.7-10.3,10.1-15.4c0.8-1,1.6-2.3,2.2-3.6
		c-0.9,1.9-0.8,6.1-1.8,8.5c-0.9,2.5-1.4,10.6-1.9,13c1.5,2,1,3,1.9,4.9c0.5,0.9,1.5,2.5,3.4,2c0,0,0.4,0,0.4,0.5
		c1.1,0,1.6,0.4,2.1,0.9c0.5,0,0.5,0.5,0.9,0.5h1.9c0.5-1.4,0.5-3,0.5-4.4s0-9.5,0.5-11.1c0-1.9,0.6-3.8,1.1-5.8
		c0-2.9,1-7.1,2.4-9.4h1c1.5,0,3,0.4,4.9,0.4c0,0,0.3,1.3,0.3,1.8c-0.4,1.9-0.4,3.9-0.9,5.8c-1,5.4-1,11.1,0.5,16.5
		c0.4,1.4,0.9,2.4,2.5,3.4c1.8,1.9,5.3,2.6,6.5,1.6c0.8-0.6,2.1-1,3-1.5c1.1,0,4.8-2.4,7.3-8.8c0.5-1.5,1.9-4.4,3.3-5.9
		c0,0,0.5-0.5,0.5-1c0,0,0-0.1,0.1-0.3c-0.1,1.2-0.1,2.4-0.1,3.4c0,4.3,2,7.9,3.9,11c0.5,0.5,0.5,0.5,0.5,0.5c0.8,2,1.8,2.5,3,3
		c1.3,0.6,2.5,1.4,3.8,2c0.6,0.5,1.3,0.5,2.4,0.5c0,0,0.8,0,1.3,0c1.9-0.5,3.1-1.1,4.3-2.5c1.1-0.5,1.9-1,2.5-1.8
		c1.1-0.6,1.6-1.3,2.5-1.8c3.9-3.9,6.8-9.3,8.1-11.9c2.9-0.6,5.1-1.9,7.9-4.3c0.8-0.7,1.7-2.2,2.4-3.7c0.4-0.5,0.1-0.3,1.2-2.3
		c0.3-0.5,1.6-2.9,1.6-3.4c0.3-1.1,0.9-1.5,1.4-2.1c2.4-4.6,3.8-9.8,6-14.6c0,0-0.9,7.4-0.4,7.9c-0.4,1.6,0.1,3.8-0.4,5.3
		c-0.3,1.5-0.8,3.6-0.6,5.3c-0.8,4.6-1,8.6-1.6,13.5c-0.4,2.5-0.9,4.6-1,7.1c0.1,3.3-0.3,6.4-0.6,8.9c1.3,2.1,1.9,5.3,3.1,7.3
		c1.5,0,1.5,0,2.5-0.5c0.6,0,0.6,1.1,1,1.1l0.6-1.1c0.6-0.4,0.5-0.6,1.1-0.6c0.4,0.6,6.1,0,6-0.9c-0.1-1.6-0.3-3.8,0.3-5.3
		c0.3-3.1,0.6-7.5,0.9-10.5c0.4-2.1,0.8-3.8,1.4-5.3c0.8-1.5,1.6-3.1,2.6-5.3c0.5-1.1,0.5-1.5,1.5-2v0.9c0.6,1.1,0.6,1.8,0.8,2.8
		c0.6,2.5,1.1,5.1,2.1,7.8c1.6,4.4,3.9,6.9,6.5,8c2.3,1,3.3,1.4,5.3,0.3c1.5,0,3-1,4.5-2.1v-0.4c1.4-1.5,2.3-4.6,3.9-6.1
		c0.8-0.6,1.3-2,1.5-3.5v-1c0.5-0.5,1.5-2.8,2.4-5.2c0.8,2.5,2.2,5.1,3.6,6.6c3.8,4.5,9,5.3,13.5,2.3c1.5-0.8,2.3-2.3,3-3
		s1.5-1.5,1.5-3c0.8-0.8,1.5-1.5,2.3-3c0,0,0,0,0.8-0.8c0,0.8,0,0.8,0,1.5c0,3,0,6-0.8,9.8c0,0,0,0.8,0,1.5s0.8,2.3,1.5,2.3
		c1.5,0.8,2.3,1.5,3,2.3c0,0.8,0.8,0.8,0.8,0.8c1.5,2.1,6-1.6,6-3.8c0-0.8,0.8-1.5,1.5-2.3c0.8-1.5,0.8-1.5,1.5-3
		c0.8-0.8,1.5-1.5,1.5-2.3c0.8-0.8,3.3-3.8,3.3-5.3c1.5-2.3,2.8-3.8,3.5-6c0.8-0.8,3-6.1,3.8-6.9
		C462.9,173.4,462.5,172.2,462.1,172.1z M244.6,174.2c0.6-1.5,0.3-3.8,1.8-6.1c1.1-3,2.5-6.9,4.6-9.3c1.4-1.5,2.1-2.5,2.6-3.3
		c0.8-0.8,2.3-1.6,3-1.6c0.8-0.1,0.8-0.1,1.5-0.1c0.8,0.8-0.8,2.1-0.5,4.4c0,0.8,0.1,2.3-0.6,3c-1.4,1.6-1.1,4-2.4,5.6
		c-2.3,1.8-2.3,3.3-5.1,4.9c-1.4,1.6-2.6,2.4-4.9,3.3C244.6,174.9,244.6,174.9,244.6,174.2z M201.7,150.1v-0.6
		c1.9-4.6,3-8.8,4.1-13.4c0.6-2.3,3.3-8.9,4-10.8c0.9-1.8,0.8-3,2.5-5.4c1.1-2.3,2.9-5.3,4.6-6.9c0.6-0.6,1.3-0.6,1.6-1.3
		c0.6,1.3,0.6,1.8,0.6,2.3c-0.6,1.3-0.6,2.5-1,3.6c-1.3,4.5-1.4,6.6-3.6,11.4c-2.9,5.8-1.1,3.5-4.8,9.4c-2.3,3.5-5.1,6.9-7.5,11
		L201.7,150.1c0,0,0,0,0,0.5C201.7,150.6,201.4,150.1,201.7,150.1z M155.4,174.2c0.6-1.5,0.3-3.8,1.8-6.1c1.1-3,2.5-6.9,4.6-9.3
		c1.4-1.5,2.1-2.5,2.6-3.3c0.8-0.8,2.3-1.6,3-1.6c0.8-0.1,0.8-0.1,1.5-0.1c0.8,0.8-0.8,2.1-0.5,4.4c0,0.8,0.1,2.3-0.6,3
		c-1.4,1.6-1.1,4-2.4,5.6c-2.3,1.8-2.3,3.3-5.1,4.9c-1.4,1.6-2.6,2.4-4.9,3.3C155.4,174.9,155.4,174.9,155.4,174.2z M62.1,174.2
		c0.6-1.5,0.3-3.8,1.8-6.1c1.1-3,2.5-6.9,4.6-9.3c1.4-1.5,2.1-2.5,2.6-3.3c0.8-0.8,2.3-1.6,3-1.6c0.8-0.1,0.8-0.1,1.5-0.1
		c0.8,0.8-0.8,2.1-0.5,4.4c0,0.8,0.1,2.3-0.6,3c-1.4,1.6-1.1,4-2.4,5.6c-2.3,1.8-2.3,3.3-5.1,4.9c-1.4,1.6-2.6,2.4-4.9,3.3
		C62.1,174.9,62.1,174.9,62.1,174.2z M120.7,204.2c-0.8,2.1-1.4,3.3-2.6,5.1c-0.4,0-0.9,0-0.9-0.4c-0.4-0.4,0.8-2.3,1.3-3.3
		c0.4-1.6,2.3-4.1,4.1-6.5C122.1,200.8,121.4,202.6,120.7,204.2z M212.9,185.7c-1,0.5-2.4,0-3.6,0c-1.8,0-6-3.9-6-6.9
		c0-2.3,1.1-8.3,2.3-10.5c0.6-1.3,1.3-1.3,2.9-2.4c3.6,2.4,3.9,8.9,4.5,13.4C212.9,180.4,212.9,184.6,212.9,185.7z M341.1,182.6
		c-3-1-3.5-3.5-5.4-5.9c1.3-0.6,1.9-2.6,3-3.1c0-0.9,0.5-0.9,0.5-0.9c1.4,0.9,1.4,0,2.4,0c0.8,0,1.4,0.9,1.4,1.4
		C343,176.1,342.6,180.8,341.1,182.6z"/>
</g>
<g>
</g>
<g>
</g>
<g>
</g>
<g>
</g>
<g>
</g>
<g>
</g>
</svg>
