<svg xmlns="http://www.w3.org/2000/svg" width="29.139" height="26.439" viewBox="0 0 29.139 26.439">
  <g id="Group_176" data-name="Group 176" transform="translate(-1436.404 -13.647)">
    <path id="Path_13" data-name="Path 13" d="M1417.227,23.551h-1.808l1.651-7a3.383,3.383,0,0,1,3.1-2.4h14.109s1.711-.164,2.4,2.4,1.886,7,1.886,7h-1.886l-1.454-6.445a1.506,1.506,0,0,0-1.533-1.258c-1.375-.039-13.323,0-13.323,0s-1.493,0-1.69,1.258S1417.227,23.551,1417.227,23.551Z" transform="translate(24)" fill="none" stroke="#33691e" stroke-linejoin="round" stroke-width="1"/>
    <path id="Path_14" data-name="Path 14" d="M1412.9,24.73l2.594,13.2a2.1,2.1,0,0,0,1.965,1.651c1.574-.033,19.218,0,19.218,0a2.362,2.362,0,0,0,2.044-2.319c.314-2.24,2.319-12.537,2.319-12.537Z" transform="translate(24)" fill="none" stroke="#33691e" stroke-linejoin="round" stroke-width="1"/>
    <g id="Rectangle_39" data-name="Rectangle 39" transform="matrix(0.999, -0.035, 0.035, 0.999, 1440.844, 28.055)" fill="none" stroke="#33691e" stroke-linejoin="round" stroke-width="1">
      <rect width="3" height="9" rx="1.5" stroke="none"/>
      <rect x="0.5" y="0.5" width="2" height="8" rx="1" fill="none"/>
    </g>
    <g id="Rectangle_40" data-name="Rectangle 40" transform="translate(1458.238 27.928) rotate(3)" fill="none" stroke="#33691e" stroke-linejoin="round" stroke-width="1">
      <rect width="3" height="9" rx="1.5" stroke="none"/>
      <rect x="0.5" y="0.5" width="2" height="8" rx="1" fill="none"/>
    </g>
    <g id="Rectangle_41" data-name="Rectangle 41" transform="translate(1452 28)" fill="none" stroke="#33691e" stroke-linejoin="round" stroke-width="1">
      <rect width="3" height="9" rx="1.5" stroke="none"/>
      <rect x="0.5" y="0.5" width="2" height="8" rx="1" fill="none"/>
    </g>
    <g id="Rectangle_42" data-name="Rectangle 42" transform="translate(1447 28)" fill="none" stroke="#33691e" stroke-linejoin="round" stroke-width="1">
      <rect width="3" height="9" rx="1.5" stroke="none"/>
      <rect x="0.5" y="0.5" width="2" height="8" rx="1" fill="none"/>
    </g>
  </g>
</svg>
